<svg width="188" height="48" viewBox="0 0 188 48" fill="none" xmlns="http://www.w3.org/2000/svg">
<path d="M35.072 34.54C35.672 34.73 36.142 35.05 36.482 35.5C36.822 35.94 36.992 36.485 36.992 37.135C36.992 38.055 36.632 38.765 35.912 39.265C35.202 39.755 34.162 40 32.792 40H27.362V29.5H32.492C33.772 29.5 34.752 29.745 35.432 30.235C36.122 30.725 36.467 31.39 36.467 32.23C36.467 32.74 36.342 33.195 36.092 33.595C35.852 33.995 35.512 34.31 35.072 34.54ZM29.777 31.33V33.805H32.192C32.792 33.805 33.247 33.7 33.557 33.49C33.867 33.28 34.022 32.97 34.022 32.56C34.022 32.15 33.867 31.845 33.557 31.645C33.247 31.435 32.792 31.33 32.192 31.33H29.777ZM32.612 38.17C33.252 38.17 33.732 38.065 34.052 37.855C34.382 37.645 34.547 37.32 34.547 36.88C34.547 36.01 33.902 35.575 32.612 35.575H29.777V38.17H32.612ZM48.5275 37.75H43.6525L42.7225 40H40.2325L44.9125 29.5H47.3125L52.0075 40H49.4575L48.5275 37.75ZM47.7625 35.905L46.0975 31.885L44.4325 35.905H47.7625ZM60.756 40.18C59.686 40.18 58.716 39.95 57.846 39.49C56.986 39.02 56.306 38.375 55.806 37.555C55.316 36.725 55.071 35.79 55.071 34.75C55.071 33.71 55.316 32.78 55.806 31.96C56.306 31.13 56.986 30.485 57.846 30.025C58.716 29.555 59.691 29.32 60.771 29.32C61.681 29.32 62.501 29.48 63.231 29.8C63.971 30.12 64.591 30.58 65.091 31.18L63.531 32.62C62.821 31.8 61.941 31.39 60.891 31.39C60.241 31.39 59.661 31.535 59.151 31.825C58.641 32.105 58.241 32.5 57.951 33.01C57.671 33.52 57.531 34.1 57.531 34.75C57.531 35.4 57.671 35.98 57.951 36.49C58.241 37 58.641 37.4 59.151 37.69C59.661 37.97 60.241 38.11 60.891 38.11C61.941 38.11 62.821 37.695 63.531 36.865L65.091 38.305C64.591 38.915 63.971 39.38 63.231 39.7C62.491 40.02 61.666 40.18 60.756 40.18ZM73.3377 35.875L71.9277 37.345V40H69.5127V29.5H71.9277V34.405L76.5777 29.5H79.2777L74.9277 34.18L79.5327 40H76.6977L73.3377 35.875ZM92.6007 31.48H89.2407V29.5H98.3907V31.48H95.0307V40H92.6007V31.48ZM107.417 40.18C106.327 40.18 105.342 39.945 104.462 39.475C103.592 39.005 102.907 38.36 102.407 37.54C101.917 36.71 101.672 35.78 101.672 34.75C101.672 33.72 101.917 32.795 102.407 31.975C102.907 31.145 103.592 30.495 104.462 30.025C105.342 29.555 106.327 29.32 107.417 29.32C108.507 29.32 109.487 29.555 110.357 30.025C111.227 30.495 111.912 31.145 112.412 31.975C112.912 32.795 113.162 33.72 113.162 34.75C113.162 35.78 112.912 36.71 112.412 37.54C111.912 38.36 111.227 39.005 110.357 39.475C109.487 39.945 108.507 40.18 107.417 40.18ZM107.417 38.11C108.037 38.11 108.597 37.97 109.097 37.69C109.597 37.4 109.987 37 110.267 36.49C110.557 35.98 110.702 35.4 110.702 34.75C110.702 34.1 110.557 33.52 110.267 33.01C109.987 32.5 109.597 32.105 109.097 31.825C108.597 31.535 108.037 31.39 107.417 31.39C106.797 31.39 106.237 31.535 105.737 31.825C105.237 32.105 104.842 32.5 104.552 33.01C104.272 33.52 104.132 34.1 104.132 34.75C104.132 35.4 104.272 35.98 104.552 36.49C104.842 37 105.237 37.4 105.737 37.69C106.237 37.97 106.797 38.11 107.417 38.11ZM126.973 31.48H123.613V29.5H132.763V31.48H129.403V40H126.973V31.48ZM141.79 40.18C140.7 40.18 139.715 39.945 138.835 39.475C137.965 39.005 137.28 38.36 136.78 37.54C136.29 36.71 136.045 35.78 136.045 34.75C136.045 33.72 136.29 32.795 136.78 31.975C137.28 31.145 137.965 30.495 138.835 30.025C139.715 29.555 140.7 29.32 141.79 29.32C142.88 29.32 143.86 29.555 144.73 30.025C145.6 30.495 146.285 31.145 146.785 31.975C147.285 32.795 147.535 33.72 147.535 34.75C147.535 35.78 147.285 36.71 146.785 37.54C146.285 38.36 145.6 39.005 144.73 39.475C143.86 39.945 142.88 40.18 141.79 40.18ZM141.79 38.11C142.41 38.11 142.97 37.97 143.47 37.69C143.97 37.4 144.36 37 144.64 36.49C144.93 35.98 145.075 35.4 145.075 34.75C145.075 34.1 144.93 33.52 144.64 33.01C144.36 32.5 143.97 32.105 143.47 31.825C142.97 31.535 142.41 31.39 141.79 31.39C141.17 31.39 140.61 31.535 140.11 31.825C139.61 32.105 139.215 32.5 138.925 33.01C138.645 33.52 138.505 34.1 138.505 34.75C138.505 35.4 138.645 35.98 138.925 36.49C139.215 37 139.61 37.4 140.11 37.69C140.61 37.97 141.17 38.11 141.79 38.11ZM156.687 29.5C157.617 29.5 158.422 29.655 159.102 29.965C159.792 30.275 160.322 30.715 160.692 31.285C161.062 31.855 161.247 32.53 161.247 33.31C161.247 34.08 161.062 34.755 160.692 35.335C160.322 35.905 159.792 36.345 159.102 36.655C158.422 36.955 157.617 37.105 156.687 37.105H154.572V40H152.142V29.5H156.687ZM156.552 35.125C157.282 35.125 157.837 34.97 158.217 34.66C158.597 34.34 158.787 33.89 158.787 33.31C158.787 32.72 158.597 32.27 158.217 31.96C157.837 31.64 157.282 31.48 156.552 31.48H154.572V35.125H156.552Z" fill="white"/>
<path d="M89.125 5.3125V8.125L93.5 5L97.875 8.125V5.3125L93.5 2.1875L89.125 5.3125Z" fill="white"/>
<path d="M89.125 9.6875V12.5L93.5 9.375L97.875 12.5V9.6875L93.5 6.5625L89.125 9.6875Z" fill="white"/>
</svg>
