<svg width="418" height="21" viewBox="0 0 418 21" fill="none" xmlns="http://www.w3.org/2000/svg">
<path d="M105.31 17V4.11523H114.863V6.29492H107.911V9.15137H114.38V11.3223H107.911V14.8291H115.109V17H105.31ZM123.28 17V4.11523H127.174L129.512 12.9043L131.823 4.11523H135.726V17H133.309V6.85742L130.751 17H128.246L125.697 6.85742V17H123.28ZM155.311 4.11523H160.065C161.138 4.11523 161.955 4.19727 162.518 4.36133C163.273 4.58398 163.921 4.97949 164.46 5.54785C164.999 6.11621 165.409 6.81348 165.69 7.63965C165.972 8.45996 166.112 9.47363 166.112 10.6807C166.112 11.7412 165.98 12.6553 165.717 13.4229C165.395 14.3604 164.935 15.1191 164.337 15.6992C163.886 16.1387 163.276 16.4814 162.509 16.7275C161.935 16.9092 161.167 17 160.206 17H155.311V4.11523ZM157.912 6.29492V14.8291H159.854C160.581 14.8291 161.105 14.7881 161.428 14.7061C161.85 14.6006 162.198 14.4219 162.474 14.1699C162.755 13.918 162.983 13.5049 163.159 12.9307C163.335 12.3506 163.423 11.5625 163.423 10.5664C163.423 9.57031 163.335 8.80566 163.159 8.27246C162.983 7.73926 162.737 7.32324 162.421 7.02441C162.104 6.72559 161.703 6.52344 161.217 6.41797C160.854 6.33594 160.142 6.29492 159.081 6.29492H157.912ZM174.327 17V4.11523H183.881V6.29492H176.929V9.15137H183.397V11.3223H176.929V14.8291H184.127V17H174.327ZM191.674 12.8076L194.205 12.5615C194.357 13.4111 194.665 14.0352 195.128 14.4336C195.597 14.832 196.227 15.0312 197.018 15.0312C197.855 15.0312 198.485 14.8555 198.907 14.5039C199.335 14.1465 199.549 13.7305 199.549 13.2559C199.549 12.9512 199.458 12.6934 199.276 12.4824C199.101 12.2656 198.79 12.0781 198.345 11.9199C198.04 11.8145 197.346 11.627 196.262 11.3574C194.867 11.0117 193.889 10.5869 193.326 10.083C192.535 9.37402 192.14 8.50977 192.14 7.49023C192.14 6.83398 192.324 6.22168 192.693 5.65332C193.068 5.0791 193.604 4.64258 194.302 4.34375C195.005 4.04492 195.852 3.89551 196.842 3.89551C198.459 3.89551 199.675 4.25 200.489 4.95898C201.31 5.66797 201.74 6.61426 201.781 7.79785L199.18 7.91211C199.068 7.25 198.828 6.77539 198.459 6.48828C198.096 6.19531 197.548 6.04883 196.815 6.04883C196.06 6.04883 195.468 6.2041 195.04 6.51465C194.765 6.71387 194.627 6.98047 194.627 7.31445C194.627 7.61914 194.756 7.87988 195.014 8.09668C195.342 8.37207 196.139 8.65918 197.404 8.95801C198.67 9.25684 199.604 9.56738 200.208 9.88965C200.817 10.2061 201.292 10.6426 201.632 11.1992C201.978 11.75 202.15 12.4326 202.15 13.2471C202.15 13.9854 201.945 14.6768 201.535 15.3213C201.125 15.9658 200.545 16.4463 199.795 16.7627C199.045 17.0732 198.11 17.2285 196.991 17.2285C195.362 17.2285 194.111 16.8535 193.238 16.1035C192.365 15.3477 191.844 14.249 191.674 12.8076ZM210.339 17V4.11523H219.893V6.29492H212.94V9.15137H219.409V11.3223H212.94V14.8291H220.139V17H210.339ZM228.371 17V4.11523H230.902L236.176 12.7197V4.11523H238.593V17H235.982L230.788 8.59766V17H228.371ZM250.64 17L246.034 4.11523H248.855L252.116 13.6514L255.271 4.11523H258.031L253.417 17H250.64ZM264.831 10.6367C264.831 9.32422 265.027 8.22266 265.42 7.33203C265.713 6.67578 266.111 6.08691 266.615 5.56543C267.125 5.04395 267.682 4.65723 268.285 4.40527C269.088 4.06543 270.014 3.89551 271.062 3.89551C272.961 3.89551 274.479 4.48438 275.615 5.66211C276.758 6.83984 277.329 8.47754 277.329 10.5752C277.329 12.6553 276.764 14.2842 275.633 15.4619C274.502 16.6338 272.99 17.2197 271.098 17.2197C269.182 17.2197 267.658 16.6367 266.527 15.4707C265.396 14.2988 264.831 12.6875 264.831 10.6367ZM267.512 10.5488C267.512 12.0078 267.849 13.1152 268.522 13.8711C269.196 14.6211 270.052 14.9961 271.089 14.9961C272.126 14.9961 272.976 14.624 273.638 13.8799C274.306 13.1299 274.64 12.0078 274.64 10.5137C274.64 9.03711 274.314 7.93555 273.664 7.20898C273.02 6.48242 272.161 6.11914 271.089 6.11914C270.017 6.11914 269.152 6.48828 268.496 7.22656C267.84 7.95898 267.512 9.06641 267.512 10.5488ZM285.438 17V4.2207H288.04V14.8291H294.509V17H285.438ZM304.323 17L299.718 4.11523H302.539L305.8 13.6514L308.955 4.11523H311.715L307.101 17H304.323ZM318.963 17V4.11523H321.564V17H318.963ZM330.017 17V4.11523H333.91L336.248 12.9043L338.56 4.11523H342.462V17H340.045V6.85742L337.487 17H334.982L332.434 6.85742V17H330.017ZM351.046 17V4.11523H360.6V6.29492H353.647V9.15137H360.116V11.3223H353.647V14.8291H360.846V17H351.046ZM369.078 17V4.11523H371.609L376.883 12.7197V4.11523H379.3V17H376.689L371.495 8.59766V17H369.078ZM390.96 17V6.29492H387.137V4.11523H397.376V6.29492H393.562V17H390.96ZM404.202 10.6367C404.202 9.32422 404.398 8.22266 404.791 7.33203C405.084 6.67578 405.482 6.08691 405.986 5.56543C406.496 5.04395 407.053 4.65723 407.656 4.40527C408.459 4.06543 409.385 3.89551 410.434 3.89551C412.332 3.89551 413.85 4.48438 414.986 5.66211C416.129 6.83984 416.7 8.47754 416.7 10.5752C416.7 12.6553 416.135 14.2842 415.004 15.4619C413.873 16.6338 412.361 17.2197 410.469 17.2197C408.553 17.2197 407.029 16.6367 405.898 15.4707C404.768 14.2988 404.202 12.6875 404.202 10.6367ZM406.883 10.5488C406.883 12.0078 407.22 13.1152 407.894 13.8711C408.567 14.6211 409.423 14.9961 410.46 14.9961C411.497 14.9961 412.347 14.624 413.009 13.8799C413.677 13.1299 414.011 12.0078 414.011 10.5137C414.011 9.03711 413.686 7.93555 413.035 7.20898C412.391 6.48242 411.532 6.11914 410.46 6.11914C409.388 6.11914 408.523 6.48828 407.867 7.22656C407.211 7.95898 406.883 9.06641 406.883 10.5488Z" fill="#FBD784"/>
<rect y="10" width="72" height="2" fill="#FBD784"/>
</svg>
