<svg width="400" height="400" viewBox="0 0 504 436" fill="none" xmlns="http://www.w3.org/2000/svg">
<path d="M195.726 -27.4996L449.963 85.093C473.192 95.3804 483.683 122.551 473.396 145.78L368.857 381.831C358.57 405.06 331.399 415.552 308.17 405.264L53.9335 292.672C30.7045 282.384 20.2131 255.214 30.5004 231.985L82.7699 113.959L135.039 -4.06655C145.327 -27.2956 172.497 -37.7869 195.726 -27.4996Z" stroke="black" stroke-width="18"/>
<path d="M210.698 124.509C222.925 119.424 235.972 119.953 249.841 126.095C263.71 132.237 272.87 141.543 277.321 154.014C281.773 166.485 281.04 179.756 275.122 193.83C268.678 207.67 259.343 217.132 247.117 222.217C234.89 227.301 221.843 226.773 207.974 220.631C194.105 214.489 184.945 205.182 180.494 192.712C176.042 180.241 176.775 166.969 182.693 152.896C189.137 139.056 198.472 129.594 210.698 124.509ZM194.674 158.202C190.048 168.648 189.248 178.635 192.272 188.164C195.423 197.644 202.266 204.716 212.799 209.381C223.42 214.085 233.299 214.418 242.437 210.38C251.613 206.254 258.515 198.969 263.141 188.523C267.767 178.078 268.504 168.115 265.353 158.635C262.241 149.067 255.374 141.932 244.753 137.228C234.22 132.563 224.365 132.294 215.188 136.419C206.138 140.496 199.3 147.757 194.674 158.202ZM276.213 249.277L305.951 182.127L317.933 187.433L288.194 254.583L276.213 249.277ZM330.471 160.543L324.757 173.446L311.854 167.732L317.568 154.829L330.471 160.543Z" fill="black"/>
</svg>
