<svg width="257" height="440" viewBox="0 0 257 440" fill="none" xmlns="http://www.w3.org/2000/svg">
<g filter="url(#filter0_d)">
<rect opacity="0.5" x="174" y="100" width="3" height="240" fill="white"/>
<rect x="174" y="100" width="3" height="60" fill="white"/>
<path d="M102.174 133V120.115H104.775V133H102.174ZM115.735 133H113.266V128.236C113.266 127.229 113.213 126.578 113.107 126.285C113.002 125.986 112.829 125.755 112.589 125.591C112.354 125.427 112.07 125.345 111.736 125.345C111.309 125.345 110.925 125.462 110.585 125.696C110.245 125.931 110.011 126.241 109.882 126.628C109.759 127.015 109.697 127.729 109.697 128.772V133H107.228V123.666H109.521V125.037C110.336 123.982 111.361 123.455 112.598 123.455C113.143 123.455 113.641 123.555 114.092 123.754C114.543 123.947 114.883 124.196 115.111 124.501C115.346 124.806 115.507 125.151 115.595 125.538C115.688 125.925 115.735 126.479 115.735 127.199V133ZM118.249 122.4V120.115H120.719V122.4H118.249ZM118.249 133V123.666H120.719V133H118.249ZM131.397 126.426L128.963 126.865C128.881 126.379 128.693 126.013 128.4 125.767C128.113 125.521 127.738 125.397 127.275 125.397C126.66 125.397 126.168 125.611 125.799 126.039C125.436 126.461 125.254 127.17 125.254 128.166C125.254 129.273 125.438 130.056 125.808 130.513C126.183 130.97 126.684 131.198 127.311 131.198C127.779 131.198 128.163 131.066 128.462 130.803C128.761 130.533 128.972 130.073 129.095 129.423L131.521 129.836C131.269 130.949 130.785 131.79 130.07 132.358C129.355 132.927 128.397 133.211 127.196 133.211C125.831 133.211 124.741 132.78 123.927 131.919C123.118 131.058 122.714 129.865 122.714 128.342C122.714 126.801 123.121 125.603 123.936 124.747C124.75 123.886 125.852 123.455 127.24 123.455C128.377 123.455 129.279 123.701 129.947 124.193C130.621 124.68 131.104 125.424 131.397 126.426ZM133.278 122.4V120.115H135.748V122.4H133.278ZM133.278 133V123.666H135.748V133H133.278ZM137.717 128.201C137.717 127.381 137.919 126.587 138.323 125.819C138.728 125.052 139.299 124.466 140.037 124.062C140.781 123.657 141.61 123.455 142.524 123.455C143.937 123.455 145.094 123.915 145.996 124.835C146.898 125.749 147.35 126.906 147.35 128.307C147.35 129.719 146.893 130.891 145.979 131.822C145.07 132.748 143.925 133.211 142.542 133.211C141.687 133.211 140.869 133.018 140.09 132.631C139.316 132.244 138.728 131.679 138.323 130.935C137.919 130.185 137.717 129.273 137.717 128.201ZM140.248 128.333C140.248 129.259 140.468 129.968 140.907 130.46C141.347 130.952 141.889 131.198 142.533 131.198C143.178 131.198 143.717 130.952 144.15 130.46C144.59 129.968 144.81 129.253 144.81 128.315C144.81 127.401 144.59 126.698 144.15 126.206C143.717 125.714 143.178 125.468 142.533 125.468C141.889 125.468 141.347 125.714 140.907 126.206C140.468 126.698 140.248 127.407 140.248 128.333Z" fill="white"/>
<path d="M135.723 194.252C134.151 194.252 132.915 193.658 132.015 192.47C131.127 191.27 130.683 189.68 130.683 187.7C130.683 185.72 131.127 184.136 132.015 182.948C132.915 181.748 134.151 181.148 135.723 181.148C137.307 181.148 138.543 181.748 139.431 182.948C140.319 184.136 140.763 185.72 140.763 187.7C140.763 189.68 140.319 191.27 139.431 192.47C138.543 193.658 137.307 194.252 135.723 194.252ZM133.815 190.778C134.247 191.474 134.883 191.822 135.723 191.822C136.563 191.822 137.199 191.468 137.631 190.76C138.075 190.052 138.297 189.032 138.297 187.7C138.297 186.356 138.075 185.33 137.631 184.622C137.199 183.914 136.563 183.56 135.723 183.56C134.883 183.56 134.247 183.914 133.815 184.622C133.383 185.33 133.167 186.356 133.167 187.7C133.167 189.044 133.383 190.07 133.815 190.778ZM144.549 181.4H146.709V194H144.225V184.028L141.849 184.694L141.237 182.57L144.549 181.4Z" fill="white"/>
</g>
<defs>
<filter id="filter0_d" x="0" y="0" width="277" height="440" filterUnits="userSpaceOnUse" color-interpolation-filters="sRGB">
<feFlood flood-opacity="0" result="BackgroundImageFix"/>
<feColorMatrix in="SourceAlpha" type="matrix" values="0 0 0 0 0 0 0 0 0 0 0 0 0 0 0 0 0 0 127 0"/>
<feOffset/>
<feGaussianBlur stdDeviation="50"/>
<feColorMatrix type="matrix" values="0 0 0 0 0 0 0 0 0 0 0 0 0 0 0 0 0 0 0.2 0"/>
<feBlend mode="normal" in2="BackgroundImageFix" result="effect1_dropShadow"/>
<feBlend mode="normal" in="SourceGraphic" in2="effect1_dropShadow" result="shape"/>
</filter>
</defs>
</svg>
